<svg width="131" height="65" viewBox="0 0 131 65" fill="none" xmlns="http://www.w3.org/2000/svg">
<path d="M70.218 16.146L70.626 20.1H70.8979L71.351 16.146V15.594H70.217V16.145L70.218 16.146ZM69.907 14.362C69.946 14.495 69.97 14.595 69.97 14.595C70.0137 14.7785 70.1189 14.9415 70.2681 15.057C70.4172 15.1725 70.6014 15.2336 70.79 15.23C70.9555 15.2326 71.1182 15.1871 71.2584 15.0992C71.3986 15.0113 71.5104 14.8846 71.5802 14.7346C71.65 14.5845 71.6748 14.4174 71.6517 14.2535C71.6286 14.0897 71.5585 13.936 71.45 13.811C71.4611 13.8889 71.4561 13.9682 71.4351 14.044C71.3221 14.315 71.1349 14.271 71.0859 14.225L71.177 14.087C71.32 13.837 71.077 13.516 71.021 13.466C70.9195 13.3907 70.8416 13.2878 70.7966 13.1696C70.7516 13.0514 70.7413 12.9229 70.767 12.799C70.5257 13.0485 70.3403 13.3464 70.223 13.673C70.1775 13.8586 70.1876 14.0534 70.2522 14.2332C70.3168 14.413 70.4328 14.5698 70.5859 14.684C70.4564 14.6798 70.3293 14.649 70.2122 14.5937C70.095 14.5383 69.9905 14.4594 69.905 14.362H69.907ZM66.355 14.362C66.393 14.495 66.417 14.595 66.417 14.595C66.4609 14.7784 66.5661 14.9414 66.7152 15.0568C66.8643 15.1723 67.0484 15.2334 67.2369 15.23C67.4025 15.2328 67.5653 15.1875 67.7057 15.0995C67.846 15.0116 67.958 14.8849 68.0277 14.7347C68.0975 14.5845 68.1221 14.4173 68.0988 14.2533C68.0754 14.0894 68.0049 13.9358 67.896 13.811C67.9082 13.8887 67.9038 13.9682 67.8831 14.044C67.7691 14.315 67.5831 14.271 67.5341 14.225L67.625 14.087C67.768 13.837 67.525 13.516 67.469 13.466C67.3677 13.3905 67.2902 13.2875 67.2454 13.1694C67.2005 13.0512 67.1903 12.9228 67.2159 12.799C66.9745 13.0483 66.7891 13.3463 66.672 13.673C66.6266 13.8586 66.6367 14.0534 66.7013 14.2332C66.7658 14.4129 66.882 14.5697 67.035 14.684C66.9056 14.68 66.7785 14.6493 66.6615 14.5939C66.5445 14.5385 66.4401 14.4595 66.355 14.362ZM66.6639 16.146L67.072 20.1H67.344L67.798 16.146V15.594H66.6639V16.145V16.146ZM63.111 16.146L63.519 20.1H63.791L64.245 16.146V15.594H63.111V16.145V16.146ZM62.801 14.362C62.839 14.495 62.863 14.595 62.863 14.595C62.9068 14.7785 63.012 14.9415 63.1611 15.057C63.3103 15.1725 63.4944 15.2336 63.683 15.23C63.8486 15.233 64.0116 15.1878 64.1521 15.1C64.2926 15.0121 64.4046 14.8854 64.4745 14.7352C64.5444 14.5849 64.5691 14.4176 64.5458 14.2536C64.5224 14.0896 64.452 13.9358 64.343 13.811C64.3546 13.8888 64.3498 13.9682 64.329 14.044C64.216 14.315 64.029 14.271 63.981 14.225L64.071 14.087C64.215 13.837 63.971 13.516 63.916 13.466C63.8145 13.3907 63.7366 13.2878 63.6918 13.1696C63.6469 13.0514 63.6369 12.9228 63.663 12.799C63.4208 13.048 63.2351 13.3461 63.118 13.673C63.0726 13.8586 63.0828 14.0534 63.1473 14.2332C63.2119 14.4129 63.3279 14.5697 63.481 14.684C63.3516 14.6798 63.2245 14.649 63.1075 14.5936C62.9906 14.5382 62.8863 14.4594 62.801 14.362ZM59.248 14.362C59.286 14.495 59.3101 14.595 59.3101 14.595C59.354 14.7786 59.4593 14.9416 59.6086 15.0571C59.758 15.1726 59.9422 15.2336 60.131 15.23C60.2964 15.2324 60.4589 15.1868 60.599 15.0988C60.7391 15.0108 60.8506 14.8841 60.9203 14.7341C60.99 14.5841 61.0148 14.4171 60.9917 14.2533C60.9686 14.0895 60.8985 13.9359 60.79 13.811C60.801 13.8889 60.7962 13.9681 60.776 14.044C60.662 14.315 60.476 14.271 60.427 14.225L60.5179 14.087C60.6619 13.837 60.4179 13.516 60.3619 13.466C60.2604 13.3907 60.1827 13.2878 60.1378 13.1696C60.093 13.0514 60.083 12.9228 60.109 12.799C59.8673 13.0482 59.6818 13.3462 59.5649 13.673C59.5195 13.8586 59.5298 14.0534 59.5944 14.2332C59.6589 14.4129 59.7749 14.5697 59.928 14.684C59.7986 14.6798 59.6715 14.649 59.5546 14.5936C59.4376 14.5382 59.3333 14.4594 59.248 14.362ZM59.557 16.146L59.965 20.1H60.2369L60.691 16.146V15.594H59.557V16.145V16.146ZM66.4919 0.735032C67.061 0.251185 67.7861 -0.0099511 68.533 3.18505e-05H76.562C76.6152 -0.00123869 76.6679 0.0106935 76.7153 0.0347761C76.7628 0.0588587 76.8036 0.094341 76.834 0.138032C76.925 0.184032 76.925 0.230033 76.97 0.276033V10.343H80.37L80.5959 10.389C80.6312 10.3897 80.666 10.3983 80.6975 10.4143C80.729 10.4302 80.7565 10.453 80.778 10.481C80.8952 10.6054 80.96 10.7701 80.959 10.941V31.626C80.9789 33.6707 80.5922 35.6989 79.8214 37.5928C79.0506 39.4866 77.9111 41.2084 76.469 42.658C75.0496 44.0814 73.3712 45.2201 71.524 46.013C69.6094 46.8556 67.5366 47.2791 65.4449 47.255C63.3848 47.2604 61.346 46.8374 59.458 46.013C57.606 45.2533 55.936 44.1099 54.558 42.658C53.1196 41.2434 51.9783 39.5557 51.201 37.694C50.4479 35.7583 50.0485 33.703 50.022 31.626V10.941C50.0249 10.7782 50.0718 10.6192 50.158 10.481C50.256 10.389 50.3865 10.3394 50.521 10.343H53.969V0.276033C53.969 0.230033 54.0151 0.184032 54.0601 0.138032C54.0938 0.0979789 54.1353 0.0651201 54.182 0.0414137C54.2287 0.0177072 54.2798 0.00363625 54.332 3.18505e-05H62.452C63.2098 0.00570776 63.944 0.264402 64.538 0.735032C64.9267 1.03354 65.2509 1.40773 65.491 1.83502C65.7619 1.41617 66.0998 1.04458 66.491 0.735032H66.4919ZM66.038 2.75803H65.038C64.8532 2.21968 64.5238 1.74259 64.0859 1.37903C63.6202 1.01469 63.0443 0.819981 62.453 0.827028H54.748V10.294H62.46C63.012 10.279 63.5588 10.4057 64.048 10.662C64.3558 10.8308 64.6449 11.0319 64.91 11.262C65.182 11.676 65.41 11.952 65.499 12.135C65.6693 11.827 65.8667 11.5349 66.089 11.262C66.3458 11.0214 66.6362 10.8193 66.951 10.662C67.4384 10.4007 67.9863 10.2737 68.5389 10.294H76.16V0.825029H68.5389C67.959 0.802839 67.3922 0.999928 66.951 1.37703C66.7158 1.53507 66.5144 1.73841 66.3586 1.97519C66.2029 2.21197 66.0959 2.47743 66.0439 2.75603L66.038 2.75803ZM73.5229 20.134C73.7169 20.172 73.9145 20.1874 74.1119 20.18C74.6188 20.1781 75.1174 20.0518 75.564 19.812C76.5124 19.302 77.5721 19.0337 78.649 19.031C79.1549 19.0265 79.6592 19.0884 80.149 19.215V11.125C80.149 11.125 73.436 20.089 73.526 20.135L73.5229 20.134ZM71.9351 26.247C72.2022 26.5079 72.5085 26.7252 72.843 26.891L72.934 26.937C73.123 27.0205 73.321 27.0822 73.524 27.121C73.7191 27.1494 73.9159 27.1648 74.113 27.167C74.6268 27.1717 75.1309 27.0279 75.5649 26.753C76.5168 26.2571 77.5768 26.0046 78.65 26.018C79.1559 26.0135 79.6602 26.0754 80.15 26.202V22.902C80.0622 22.8489 79.9714 22.8008 79.8781 22.758C79.5011 22.56 79.0784 22.4648 78.653 22.482C78.1282 22.4602 77.608 22.5878 77.153 22.85C76.2111 23.3415 75.1741 23.6236 74.113 23.677C73.2466 23.669 72.3934 23.4639 71.618 23.077V25.927L71.9351 26.248V26.247ZM50.848 11.124V19.169C51.3104 19.0731 51.7818 19.0268 52.254 19.031C53.3466 19.0223 54.4236 19.2911 55.384 19.812C55.8166 20.0461 56.2992 20.1723 56.791 20.18C57.1814 20.1886 57.5689 20.1101 57.925 19.95L50.848 11.124ZM50.848 26.156C51.3104 26.0601 51.7818 26.0138 52.254 26.018C53.3428 25.994 54.4198 26.2469 55.384 26.753C55.7988 27.0335 56.2904 27.1782 56.791 27.167C57.2138 27.1587 57.6305 27.0648 58.016 26.891C58.3659 26.7033 58.7003 26.488 59.016 26.247L59.288 25.975V23.122C58.5018 23.4717 57.6532 23.6591 56.793 23.673C55.7563 23.6478 54.7425 23.3635 53.844 22.846C53.3546 22.5903 52.808 22.4637 52.256 22.478C51.8443 22.4543 51.4345 22.5501 51.076 22.754L50.8459 22.928V26.156H50.848ZM60.011 30.109C60.1048 30.6598 60.2566 31.1992 60.464 31.718C60.7156 32.3868 61.1016 32.997 61.598 33.511C61.87 33.695 62.098 33.924 62.415 34.111C62.4837 34.1671 62.5597 34.2136 62.641 34.249C62.8557 34.4302 63.1017 34.5705 63.3669 34.663C64.0346 34.9154 64.7396 35.0552 65.453 35.077C66.1817 35.0549 66.9019 34.915 67.5859 34.663C67.8461 34.5603 68.0903 34.4209 68.311 34.249C68.5483 34.1114 68.7757 33.9577 68.9919 33.789C69.0829 33.697 69.2181 33.605 69.3101 33.513C69.8203 33.0013 70.2214 32.3913 70.489 31.72C70.524 31.654 70.545 31.608 70.579 31.536C70.8197 31.1165 70.945 30.6407 70.942 30.157V22.481H59.964V29.514C59.964 29.698 60.01 29.928 60.01 30.114L60.011 30.109ZM59.739 31.764C59.4662 31.1232 59.3123 30.438 59.285 29.742C58.5284 30.2144 57.6761 30.5126 56.79 30.615C55.7502 30.6119 54.7308 30.326 53.8409 29.788C53.3488 29.5438 52.8014 29.4328 52.2531 29.466C51.8413 29.4422 51.4315 29.5381 51.073 29.742L50.8459 29.88V31.673C50.8386 32.0403 50.854 32.4077 50.892 32.773C51.3399 32.6816 51.7959 32.6353 52.2531 32.635C53.3471 32.6153 54.4269 32.8851 55.3831 33.417C55.8197 33.6407 56.2998 33.7663 56.79 33.785C57.2042 33.7961 57.6161 33.7199 57.9989 33.5614C58.3817 33.4029 58.7268 33.1656 59.012 32.865L59.375 32.405C59.5092 32.2562 59.6168 32.0854 59.693 31.9L59.738 31.762L59.739 31.764ZM53.839 36.499C53.3454 36.2489 52.8038 36.1077 52.251 36.085C52.0201 36.0704 51.7886 36.1016 51.5699 36.177C51.6809 36.6042 51.8326 37.0198 52.0229 37.418C52.7286 39.195 53.7943 40.8068 55.153 42.152C55.2489 42.255 55.3555 42.3475 55.4709 42.428L60.098 36.314C59.871 36.452 59.6439 36.59 59.3719 36.728C58.5488 37.0546 57.6725 37.2261 56.787 37.234C55.7584 37.2358 54.7454 36.9833 53.838 36.499H53.839ZM61.895 42.06L63.483 43.301L62.8929 41.324L64.481 40.129H62.53L61.894 38.198L61.26 40.129H59.26L60.8929 41.324L60.2581 43.301L61.891 42.06H61.895ZM80.104 32.821C80.1408 32.4392 80.1558 32.0556 80.149 31.672V29.925C80.0546 29.8695 79.9637 29.808 79.877 29.741C79.5019 29.5377 79.078 29.4422 78.652 29.465C78.1317 29.43 77.612 29.5416 77.152 29.787C76.2184 30.2994 75.1764 30.5828 74.1119 30.614C73.2491 30.6222 72.3958 30.4334 71.6169 30.062C71.6152 30.6629 71.4918 31.2572 71.254 31.809C71.3976 32.2203 71.6286 32.5955 71.931 32.909C72.2264 33.1542 72.5453 33.3695 72.8831 33.552C73.2739 33.7029 73.6891 33.7808 74.108 33.782C74.6141 33.7745 75.1115 33.6485 75.5601 33.414C76.5163 32.9242 77.5709 32.6569 78.645 32.632C79.1351 32.6224 79.6238 32.6844 80.0959 32.816L80.104 32.821ZM77.156 36.499C76.2086 36.9633 75.1708 37.2141 74.116 37.234C73.2446 37.2305 72.3822 37.0587 71.576 36.728C71.3491 36.59 71.123 36.499 70.895 36.36L75.568 42.474L75.886 42.152C77.2199 40.7866 78.2821 39.1801 79.016 37.418C79.216 36.936 79.332 36.61 79.469 36.218C79.2064 36.1278 78.9307 36.0812 78.653 36.08C78.1265 36.0925 77.6113 36.2347 77.153 36.494L77.156 36.499ZM70.7679 43.299L70.179 41.322L71.766 40.127H69.8149L69.1801 38.196L68.545 40.127H66.545L68.178 41.322L67.543 43.299L69.176 42.058L70.764 43.299H70.7679Z" fill="#FEFEFE"/>
<path d="M68.0719 5.08112C67.786 5.271 67.5516 5.52864 67.3894 5.83109C67.2272 6.13354 67.1424 6.47143 67.1424 6.81463C67.1424 7.15783 67.2272 7.49571 67.3894 7.79816C67.5516 8.10062 67.786 8.35826 68.0719 8.54813C68.4265 8.80612 68.8184 9.00844 69.234 9.14812V11.5981H66.559V10.7611H68.883V10.0411C68.3663 9.87416 67.8768 9.63262 67.43 9.32413C67.0498 9.02536 66.7425 8.64414 66.5312 8.20925C66.3198 7.77436 66.21 7.29716 66.21 6.81364C66.21 6.33011 66.3198 5.8529 66.5312 5.41801C66.7425 4.98312 67.0498 4.6019 67.43 4.30312C68.2285 3.63772 69.2376 3.27765 70.277 3.28713C71.3178 3.26756 72.3298 3.62887 73.123 4.30312C73.5166 4.59352 73.8371 4.97166 74.0591 5.40752C74.2811 5.84339 74.3986 6.32499 74.402 6.81412C74.4246 7.30761 74.3186 7.79851 74.0944 8.2387C73.8702 8.67889 73.5354 9.05326 73.123 9.32513C72.7119 9.65651 72.2377 9.9005 71.729 10.0421V10.7601H74.059V11.5971H71.329V9.08613C71.7829 8.97998 72.2153 8.79738 72.6079 8.54613C72.8785 8.34969 73.0949 8.08789 73.2368 7.78519C73.3788 7.4825 73.4418 7.14876 73.42 6.81513C73.4089 6.48534 73.331 6.16123 73.1909 5.86246C73.0509 5.5637 72.8515 5.29652 72.605 5.07713C71.9435 4.55897 71.123 4.28584 70.283 4.30413C69.479 4.29654 68.6979 4.57153 68.076 5.08112H68.0719Z" fill="#FEFEFE"/>
<path d="M64.311 11.7159L62.861 8.78793H58.678L57.226 11.7169H56.179L60.653 2.92993H60.884L65.3 11.7169L64.311 11.7159ZM62.394 7.89093L60.825 4.66293L59.14 7.89093H62.394Z" fill="#FEFEFE"/>
<path d="M64.9821 26.077V23.749H65.969V26.08C66.1573 26.0845 66.3395 26.147 66.491 26.259L67.653 24.227C67.9575 24.3495 68.2342 24.5326 68.4661 24.765L67.366 26.738C67.4319 26.8112 67.5105 26.8718 67.598 26.917C67.6702 26.9854 67.7291 27.0664 67.772 27.156L69.6901 25.956C69.8674 26.2439 70.0228 26.5448 70.155 26.856L68.2371 27.992C68.2951 28.172 68.295 28.351 68.353 28.53H70.619V29.486H68.353C68.295 29.665 68.2951 29.844 68.2371 30.024L70.155 31.224C70.0231 31.5354 69.8677 31.8363 69.6901 32.124L67.772 30.924C67.7288 31.0138 67.67 31.0951 67.598 31.164C67.5103 31.2089 67.4316 31.2696 67.366 31.343L68.4661 33.316C68.2188 33.5289 67.9455 33.7096 67.653 33.854L66.491 31.882C66.3246 31.9501 66.1484 31.9906 65.969 32.002V34.273L65.4451 34.333L64.981 34.273V32.002C64.801 31.9905 64.6241 31.95 64.457 31.882L63.296 33.854C63.0031 33.7097 62.7296 33.529 62.4821 33.316L63.582 31.403C63.5374 31.2971 63.4546 31.2118 63.35 31.164C63.293 31.104 63.234 31.044 63.234 30.984L61.259 32.06C61.0697 31.8015 60.9135 31.5203 60.7941 31.223L62.769 30.087C62.6766 29.8986 62.6177 29.6956 62.595 29.487H60.33V28.531H62.595C62.653 28.352 62.6531 28.173 62.7111 27.993L60.7941 26.857C60.926 26.5457 61.0814 26.2448 61.259 25.957L63.176 27.157C63.219 27.0675 63.278 26.9865 63.35 26.918C63.466 26.858 63.524 26.739 63.641 26.679L62.479 24.766C62.7111 24.5335 62.988 24.3504 63.293 24.228L64.454 26.26C64.6062 26.1481 64.7891 26.0856 64.978 26.081L64.9821 26.077Z" fill="#FEFEFE"/>
<path d="M1.00001 57.3689H2.41908V61.1639C2.40723 61.555 2.42462 61.9464 2.47108 62.3349C2.52373 62.6101 2.67612 62.8562 2.89906 63.0259C3.16958 63.2129 3.49467 63.3044 3.82301 63.2859C4.14231 63.3092 4.45998 63.2224 4.72303 63.0399C4.91583 62.8909 5.04574 62.675 5.08704 62.4349C5.13716 62.0403 5.15758 61.6425 5.14808 61.2449V57.3689H6.56702V61.0509C6.58512 61.6475 6.54662 62.2445 6.45203 62.8339C6.3877 63.1579 6.2429 63.4605 6.03101 63.7139C5.80619 63.967 5.52443 64.163 5.20899 64.2859C4.77939 64.442 4.32386 64.5139 3.86707 64.4979C3.35129 64.523 2.83561 64.4441 2.35096 64.2659C2.03523 64.1334 1.75562 63.9278 1.53504 63.6659C1.34411 63.4408 1.20725 63.175 1.13502 62.8889C1.02699 62.3023 0.980802 61.7061 0.997078 61.1099V57.3699L1.00001 57.3689Z" fill="white"/>
<path d="M8.06903 64.3719V57.3719H9.44208L12.3231 62.0639V57.3689H13.6341V64.3689H12.2181L9.37909 59.7689V64.3689L8.06903 64.3719Z" fill="white"/>
<path d="M15.0891 64.3718V57.3718H16.507V64.3718H15.0891Z" fill="white"/>
<path d="M19.642 64.3718L17.136 57.3718H18.6689L20.447 62.5558L22.1541 57.3718H23.66L21.17 64.3718H19.642Z" fill="white"/>
<path d="M24.364 64.3718V57.3718H29.548V58.5548H25.782V60.1088H29.282V61.2918H25.782V63.1918H29.682V64.3758L24.364 64.3718Z" fill="white"/>
<path fill-rule="evenodd" clip-rule="evenodd" d="M30.877 64.3719V57.3719H33.855C34.4056 57.3459 34.9567 57.4094 35.4869 57.5599C35.8267 57.6853 36.1143 57.9217 36.303 58.2309C36.5087 58.5604 36.615 58.9424 36.609 59.3309C36.6256 59.8071 36.4604 60.2719 36.147 60.6309C35.7776 61.003 35.2883 61.2322 34.766 61.2779C35.0445 61.4359 35.2985 61.6337 35.52 61.8649C35.8191 62.2203 36.0867 62.6011 36.3199 63.0029L37.1749 64.3689H35.485L34.4709 62.8399C34.2439 62.4819 33.9941 62.1388 33.723 61.8129C33.6064 61.6827 33.4598 61.5829 33.296 61.5219C33.0635 61.4592 32.8227 61.4326 32.582 61.4429H32.2939V64.3679L30.877 64.3719ZM32.295 60.3319H33.34C33.7655 60.3533 34.1921 60.3244 34.611 60.2459C34.7744 60.1941 34.9155 60.0883 35.011 59.9459C35.1115 59.7893 35.1617 59.6058 35.155 59.4199C35.1645 59.2129 35.0976 59.0097 34.967 58.8489C34.8285 58.6963 34.6395 58.5987 34.4349 58.5739C34.3203 58.5572 33.9763 58.5489 33.403 58.5489H32.303V60.3289L32.295 60.3319Z" fill="white"/>
<path d="M37.575 62.1029L38.954 61.9659C38.9983 62.3522 39.175 62.7112 39.454 62.9819C39.7441 63.2103 40.1073 63.3254 40.476 63.3059C40.8412 63.3327 41.2042 63.2308 41.502 63.0179C41.6073 62.9391 41.6932 62.8372 41.753 62.72C41.8128 62.6028 41.8449 62.4734 41.847 62.3419C41.851 62.1881 41.7995 62.0379 41.702 61.9189C41.5616 61.777 41.387 61.6736 41.195 61.6189C41.0303 61.5616 40.6547 61.4592 40.0681 61.3119C39.4921 61.2053 38.9483 60.9675 38.4791 60.6169C38.1391 60.3234 37.9172 59.9165 37.8547 59.4718C37.7921 59.0271 37.8932 58.5747 38.139 58.1989C38.351 57.8789 38.6551 57.6307 39.011 57.4869C39.4478 57.3134 39.9153 57.2303 40.3851 57.2429C41.0934 57.1903 41.7964 57.3976 42.363 57.8259C42.5836 58.021 42.7601 58.2608 42.8808 58.5295C43.0015 58.7981 43.0637 59.0894 43.063 59.3839L41.644 59.4329C41.6167 59.134 41.4791 58.8559 41.258 58.6529C40.9969 58.4756 40.6836 58.3918 40.369 58.4149C40.0311 58.3956 39.6959 58.4846 39.412 58.6689C39.3415 58.7173 39.2842 58.7825 39.2453 58.8586C39.2064 58.9348 39.187 59.0194 39.189 59.1049C39.1891 59.1875 39.208 59.2691 39.2444 59.3432C39.2808 59.4174 39.3337 59.4823 39.399 59.5329C39.799 59.7695 40.2401 59.9286 40.699 60.0019C41.2245 60.11 41.7354 60.2799 42.221 60.5079C42.5385 60.6707 42.8057 60.9168 42.994 61.2199C43.1891 61.5583 43.2855 61.9445 43.272 62.3349C43.2728 62.7354 43.1567 63.1274 42.938 63.4629C42.7126 63.8157 42.382 64.0889 41.993 64.2439C41.507 64.4283 40.9896 64.5153 40.47 64.4999C39.7388 64.5486 39.0145 64.3312 38.431 63.8879C37.9286 63.4248 37.6242 62.7858 37.581 62.1039L37.575 62.1029Z" fill="white"/>
<path d="M44.411 64.3718V57.3718H45.829V64.3718H44.411Z" fill="white"/>
<path fill-rule="evenodd" clip-rule="evenodd" d="M47.171 57.369H49.75C50.1973 57.3541 50.6445 57.3989 51.08 57.502C51.4829 57.6189 51.847 57.842 52.134 58.148C52.4361 58.4731 52.6637 58.86 52.801 59.282C52.966 59.818 53.043 60.3773 53.0291 60.938C53.0398 61.443 52.9675 61.9464 52.8151 62.428C52.667 62.8942 52.4103 63.3185 52.066 63.666C51.7835 63.9267 51.4443 64.118 51.0751 64.225C50.6684 64.3359 50.2474 64.3858 49.826 64.373H47.171V57.373V57.369ZM48.588 58.552V63.188H49.64C49.9256 63.1976 50.2115 63.1751 50.4921 63.121C50.7026 63.0727 50.8978 62.9727 51.0601 62.83C51.2404 62.6409 51.368 62.4078 51.4301 62.154C51.5371 61.7354 51.5849 61.3039 51.572 60.872C51.587 60.4519 51.5392 60.0319 51.4301 59.626C51.3549 59.3703 51.2174 59.1374 51.03 58.948C50.8472 58.7801 50.6216 58.6659 50.3781 58.618C49.9955 58.5608 49.6086 58.5384 49.222 58.551L48.588 58.552Z" fill="white"/>
<path fill-rule="evenodd" clip-rule="evenodd" d="M60.549 64.3718H59.023L58.423 62.7778H55.613L55.032 64.3718H53.532L56.252 57.3718H57.752L60.5521 64.3718H60.549ZM57.9579 61.5938L56.9839 59.0018L56.04 61.5938H57.9579Z" fill="white"/>
<path fill-rule="evenodd" clip-rule="evenodd" d="M61.309 57.369H63.888C64.3356 57.3541 64.7832 57.3988 65.2191 57.502C65.6216 57.6191 65.9853 57.8422 66.272 58.148C66.5739 58.4732 66.8015 58.8601 66.939 59.282C67.1048 59.8179 67.1821 60.3772 67.168 60.938C67.1785 61.4431 67.1059 61.9465 66.9531 62.428C66.8048 62.8941 66.548 63.3183 66.204 63.666C65.9215 63.9267 65.5822 64.118 65.213 64.225C64.8062 64.3359 64.3854 64.3858 63.9641 64.373H61.309V57.373V57.369ZM62.727 58.552V63.188H63.779C64.0646 63.1977 64.3505 63.1753 64.631 63.121C64.8416 63.0727 65.0368 62.9727 65.199 62.83C65.3796 62.6412 65.507 62.408 65.5681 62.154C65.676 61.7356 65.7241 61.3039 65.711 60.872C65.7262 60.4518 65.678 60.0318 65.5681 59.626C65.4935 59.3701 65.3559 59.137 65.168 58.948C64.9851 58.7802 64.7596 58.666 64.5161 58.618C64.1335 58.5609 63.7466 58.5385 63.36 58.551L62.727 58.552Z" fill="white"/>
<path fill-rule="evenodd" clip-rule="evenodd" d="M71.09 57.369H73.6689C74.1165 57.3541 74.5642 57.3988 75 57.502C75.4028 57.6185 75.7666 57.8417 76.053 58.148C76.3555 58.4729 76.5834 58.8599 76.7209 59.282C76.8861 59.818 76.9634 60.3773 76.95 60.938C76.9608 61.4431 76.8882 61.9466 76.735 62.428C76.5861 62.8936 76.3299 63.3177 75.9869 63.666C75.7037 63.9262 75.3643 64.1174 74.995 64.225C74.5879 64.3359 74.1667 64.3858 73.745 64.373H71.09V57.373V57.369ZM72.509 58.552V63.188H73.5599C73.8459 63.1976 74.132 63.1752 74.413 63.121C74.6235 63.0727 74.8187 62.9727 74.981 62.83C75.1611 62.641 75.2884 62.4078 75.35 62.154C75.4576 61.7355 75.5054 61.3039 75.4919 60.872C75.5075 60.4519 75.4597 60.0318 75.35 59.626C75.2752 59.3702 75.1377 59.1372 74.95 58.948C74.7671 58.7802 74.5415 58.666 74.298 58.618C73.9154 58.5609 73.5285 58.5385 73.142 58.551L72.509 58.552Z" fill="white"/>
<path d="M78.16 64.3718V57.3718H83.3431V58.5548H79.5781V60.1088H83.0781V61.2918H79.5781V63.1918H83.478V64.3758L78.16 64.3718Z" fill="white"/>
<path d="M84.712 64.372V57.427H86.13V63.189H89.641V64.373L84.712 64.372Z" fill="white"/>
<path fill-rule="evenodd" clip-rule="evenodd" d="M93.365 57.369H96.165C96.5795 57.3602 96.994 57.3833 97.405 57.438C97.6668 57.4801 97.9162 57.5787 98.136 57.727C98.3567 57.8786 98.5407 58.0778 98.674 58.31C98.8184 58.5578 98.8927 58.8402 98.889 59.127C98.8897 59.4475 98.7972 59.7614 98.6229 60.0303C98.4486 60.2993 98.1998 60.5118 97.907 60.642C98.2946 60.7419 98.6391 60.9656 98.888 61.279C99.1178 61.5832 99.2386 61.9559 99.231 62.337C99.2304 62.6604 99.1544 62.9792 99.009 63.268C98.8717 63.5572 98.6623 63.8062 98.401 63.991C98.1186 64.1812 97.7922 64.2959 97.453 64.324C97.2176 64.3494 96.649 64.3653 95.747 64.372H93.362V57.372L93.365 57.369ZM94.782 58.533V60.147H95.709C96.258 60.147 96.601 60.14 96.735 60.123C96.948 60.1076 97.1494 60.0193 97.305 59.873C97.3751 59.8012 97.4297 59.7158 97.4654 59.622C97.5012 59.5283 97.5174 59.4283 97.513 59.328C97.5212 59.1363 97.4569 58.9485 97.333 58.802C97.1925 58.6568 97.0027 58.5694 96.801 58.557C96.662 58.541 96.258 58.533 95.594 58.533H94.782ZM94.782 61.311V63.189H96.093C96.4169 63.199 96.7412 63.1847 97.063 63.146C97.2611 63.1138 97.4425 63.0151 97.577 62.866C97.7175 62.6987 97.789 62.4842 97.7769 62.266C97.7828 62.0755 97.7294 61.8879 97.624 61.729C97.5151 61.5774 97.36 61.4651 97.182 61.409C96.7696 61.3204 96.3472 61.2868 95.926 61.309L94.782 61.311Z" fill="white"/>
<path fill-rule="evenodd" clip-rule="evenodd" d="M100.384 64.3719V57.3719H101.802V64.3719H100.384ZM100.159 56.7329L100.825 55.304H102.325L101.004 56.7329H100.159Z" fill="white"/>
<path fill-rule="evenodd" clip-rule="evenodd" d="M102.852 60.914C102.833 60.2983 102.942 59.6854 103.172 59.1139C103.33 58.757 103.551 58.4312 103.824 58.1519C104.08 57.8818 104.388 57.6667 104.73 57.5199C105.21 57.3271 105.724 57.2329 106.241 57.2429C106.698 57.222 107.155 57.2968 107.582 57.4624C108.008 57.6281 108.396 57.881 108.719 58.2049C109.321 58.9636 109.649 59.903 109.65 60.8712C109.651 61.8394 109.326 62.7797 108.726 63.5399C108.405 63.8635 108.019 64.1161 107.595 64.2814C107.17 64.4468 106.715 64.5212 106.26 64.5C105.802 64.5222 105.344 64.4488 104.916 64.2843C104.488 64.1199 104.099 63.8681 103.774 63.5449C103.454 63.1888 103.209 62.773 103.05 62.3215C102.892 61.87 102.825 61.3916 102.852 60.914ZM104.309 60.866C104.262 61.5155 104.458 62.1592 104.86 62.672C105.037 62.865 105.253 63.0191 105.493 63.1245C105.733 63.2299 105.992 63.2843 106.254 63.2843C106.517 63.2843 106.776 63.2299 107.016 63.1245C107.256 63.0191 107.471 62.865 107.649 62.672C108.049 62.1495 108.243 61.4981 108.193 60.8419C108.243 60.1972 108.055 59.5565 107.663 59.0419C107.479 58.8538 107.26 58.7043 107.018 58.6025C106.776 58.5007 106.515 58.4486 106.252 58.4492C105.99 58.4499 105.73 58.5033 105.488 58.6063C105.246 58.7093 105.027 58.8598 104.845 59.0489C104.45 59.5664 104.259 60.211 104.309 60.8599V60.866Z" fill="white"/>
<path d="M110.582 62.5041V61.165H113.223V62.5041H110.582Z" fill="white"/>
<path fill-rule="evenodd" clip-rule="evenodd" d="M114.015 57.369H116.815C117.23 57.3602 117.645 57.3833 118.056 57.438C118.317 57.4803 118.567 57.5789 118.786 57.727C119.007 57.8786 119.191 58.0779 119.324 58.31C119.469 58.5577 119.543 58.8402 119.539 59.127C119.54 59.4476 119.448 59.7617 119.274 60.0307C119.099 60.2998 118.85 60.5122 118.557 60.642C118.945 60.742 119.29 60.9656 119.539 61.279C119.768 61.5834 119.889 61.956 119.881 62.337C119.88 62.6604 119.804 62.9791 119.659 63.268C119.522 63.5568 119.313 63.8057 119.052 63.991C118.769 64.181 118.443 64.2957 118.103 64.324C117.868 64.3494 117.299 64.3653 116.397 64.372H114.013V57.372L114.015 57.369ZM115.433 58.533V60.147H116.359C116.91 60.147 117.252 60.139 117.385 60.123C117.598 60.1072 117.799 60.019 117.955 59.873C118.025 59.801 118.079 59.7155 118.115 59.6218C118.15 59.5281 118.166 59.4282 118.162 59.328C118.17 59.1363 118.106 58.9485 117.982 58.802C117.842 58.6565 117.652 58.569 117.45 58.557C117.31 58.541 116.908 58.533 116.243 58.533H115.433ZM115.433 61.311V63.189H116.743C117.067 63.1991 117.392 63.1847 117.714 63.146C117.912 63.114 118.093 63.0152 118.227 62.866C118.367 62.6985 118.439 62.4841 118.427 62.266C118.433 62.0755 118.38 61.8877 118.274 61.729C118.165 61.5774 118.01 61.4651 117.832 61.409C117.42 61.3205 116.997 61.2868 116.576 61.309L115.433 61.311Z" fill="white"/>
<path fill-rule="evenodd" clip-rule="evenodd" d="M121.035 64.3719V57.3719H122.453V64.3719H121.035ZM120.81 56.7329L121.475 55.304H122.975L121.655 56.7329H120.81Z" fill="white"/>
<path fill-rule="evenodd" clip-rule="evenodd" d="M123.503 60.914C123.485 60.2983 123.594 59.6855 123.824 59.114C123.983 58.7573 124.203 58.4316 124.476 58.152C124.732 57.882 125.04 57.667 125.382 57.52C125.862 57.3272 126.375 57.233 126.892 57.243C127.349 57.2219 127.806 57.2966 128.233 57.4622C128.66 57.6279 129.048 57.8809 129.371 58.205C129.973 58.9635 130.301 59.9029 130.302 60.8711C130.304 61.8393 129.979 62.7797 129.379 63.54C129.058 63.8635 128.672 64.1161 128.247 64.2814C127.822 64.4468 127.367 64.5212 126.912 64.5C126.454 64.5224 125.996 64.4491 125.568 64.2846C125.14 64.1202 124.75 63.8683 124.425 63.545C124.105 63.189 123.859 62.7732 123.701 62.3217C123.542 61.8702 123.475 61.3918 123.502 60.914H123.503ZM124.961 60.866C124.914 61.5153 125.11 62.1589 125.511 62.672C125.685 62.871 125.901 63.0293 126.142 63.1355C126.384 63.2418 126.647 63.2936 126.911 63.287C127.173 63.2943 127.434 63.2434 127.674 63.1379C127.915 63.0324 128.129 62.875 128.301 62.677C128.701 62.1545 128.894 61.5031 128.845 60.847C128.895 60.2023 128.707 59.5615 128.315 59.047C128.132 58.8589 127.912 58.7094 127.67 58.6076C127.428 58.5058 127.168 58.4537 126.905 58.4544C126.642 58.455 126.382 58.5084 126.141 58.6114C125.899 58.7144 125.681 58.8649 125.498 59.054C125.103 59.5714 124.912 60.216 124.962 60.865L124.961 60.866Z" fill="white"/>
</svg>
